#!OML:ASF F:\VICON\USERDATA\INSTALL\rory3\rory3.ASF
:FULLY-SPECIFIED
:DEGREES
80
root -5.150924004790953 18.111369262723056 -3.264419305546228 -172.0283056938421 -3.058656484158753 -177.16902950601713
lfemur -23.49635216188142 -16.990839722223487 -14.496112562144695
ltibia 25.385297253736816
lfoot 21.089320354908594 -44.678575769331346
ltoes 42.795029419754485
rfemur 15.30839067248841 -9.414911687464345 20.34392226867049
rtibia 17.433480684543625
rfoot 27.75364979264301 -38.273907856316235
rtoes 28.78827521355967
lowerback -9.439488421760643 12.234719932450105 16.645245645452977
upperback -14.90836017883118 19.575455651264555 5.30197694968954
thorax -8.461877350649015 9.858803034641106 -2.7583019534094833
lowerneck -6.110057390342137 -22.93233854088352 -3.5650625774809015
upperneck 12.150273657220396 -32.83979852350925 5.086540205514717
head 5.823062244791261 -16.085927685161867 -0.29286879529981724
lclavicle -4.405541916214638e-15 -9.696861835893346e-15
lhumerus 61.07281584951453 21.293688974201203 70.24813253383057
lradius 78.12850830490198
lwrist 30.675268346681904
lhand -24.438874778178082 15.503021819396526
lfingers 7.125020000000001
lthumb -177.9437227577019 -9.69732262550346
rclavicle -4.405541916214637e-15 -9.696861835893347e-15
rhumerus 117.48031404587098 32.85656136135703 -48.33808453539613
rradius 62.323232068935475
rwrist 12.949395435695717
rhand -26.521256184830886 15.947999305441604
rfingers 7.125020000000001
rthumb 0.042946364777769475 -13.551760640121104
81
root -5.131027524161243 18.100009906419228 -3.4364017328907583 -171.9155905818053 -5.301982886271546 -177.0333043806887
lfemur -24.423202652392373 -18.038410208334735 -13.68675159399971
ltibia 26.538450496863543
lfoot 22.543267396930673 -44.6285630526757
ltoes 45.0444950766846
rfemur 16.78543001586813 -9.94965976172616 21.618805621131333
rtibia 14.897247044365725
rfoot 30.396759538596267 -38.00410256283886
rtoes 28.338743557036803
lowerback -10.03831959655653 13.555821149040012 16.657987351648543
upperback -15.90768890762136 19.909258831241445 4.326181305442853
thorax -8.737172314146317 9.41354500173894 -3.5102086893380413
lowerneck -6.14275031818587 -22.947661693334915 -4.18741308368867
upperneck 11.449538622828635 -32.766485747877724 5.372718986080009
head 5.7155530355407596 -16.072408119075295 -0.149342917191017
lclavicle -4.38222930161604e-15 -9.681626553738942e-15
lhumerus 64.38426196421658 24.81561367456154 68.33605823690371
lradius 80.96032651701945
lwrist 29.10798472692371
lhand -25.445543915644976 15.307613202500322
lfingers 7.125020000000001
lthumb -178.91288407247666 -18.429943027658283
rclavicle -4.3822293016160395e-15 -9.681626553738942e-15
rhumerus 121.12877722784887 31.495109320764715 -47.57287555996486
rradius 65.96190382400715
rwrist 14.387674392077535
rhand -29.581815365631833 16.900527227523458
rfingers 7.125020000000001
rthumb -2.915143606966078 -12.604435736812299
82
root -5.123960139715484 18.083359981568044 -3.5900611184982534 -171.4040499150891 -7.17267268854571 -176.46999405663078
lfemur -25.31581334319352 -18.887001375852627 -12.963811786784046
ltibia 27.68568120629985
lfoot 23.561271277618182 -44.58318980296519
ltoes 46.60816604963932
rfemur 17.998666490289253 -10.45703629349155 22.609439489936417
rtibia 12.54074391443383
rfoot 32.92538392883899 -37.33682553064147
rtoes 28.01434786374769
lowerback -10.594720564501237 15.017669790576006 16.46963875789963
upperback -16.792728726343547 19.98829383636599 3.411709838942713
thorax -8.909860679460188 8.68781761395966 -4.1053647705970135
lowerneck -6.158880902799059 -22.909219003206534 -4.69207450919074
upperneck 11.036386105223203 -32.60645451157521 5.43178755155003
head 5.659955891582219 -16.022434915766635 -0.05471180234291029
lclavicle -4.580684003202069e-15 -9.846119076602043e-15
lhumerus 66.9831204930149 28.284587629968954 66.75325818200318
lradius 83.83721352652753
lwrist 26.8752993433626
lhand -26.762946906736158 15.357059518930843
lfingers 7.125020000000001
lthumb -180.18083238032222 -23.025214807554235
rclavicle -4.580684003202068e-15 -9.846119076602043e-15
rhumerus 124.31140936528715 30.02785144936743 -46.66781056181421
rradius 69.34007593524605
rwrist 15.47801437105386
rhand -32.98419536059906 17.855916869741502
rfingers 7.125020000000001
rthumb -6.202948359795323 -11.632815319765644
83
root -5.117463414676813 18.064317736330725 -3.7228103390847287 -171.66063660415148 -8.643916202676358 -176.71070565498292
lfemur -26.140244178820645 -19.654406789747217 -12.498386580525999
ltibia 28.612880731507058
lfoot 24.101551465091788 -44.79609654098473
ltoes 47.34939657829945
rfemur 19.00192716210934 -10.893565602217734 23.212349178746585
rtibia 10.551603176829818
rfoot 35.093684011151524 -36.56620051113798
rtoes 27.789860537055908
lowerback -11.112190752186388 16.373243490202594 16.219330932808187
upperback -17.51475016083515 19.983820206061225 2.5753272436458827
thorax -8.974641927616247 7.964895178210204 -4.615630629121605
lowerneck -6.227524919601249 -22.954368516579663 -5.1087060474633725
upperneck 10.907650195041573 -32.47745646924144 5.389230546332299
head 5.678889380153778 -15.956198904311355 -0.006188962778614027
lclavicle -4.8162435841804695e-15 -1.0035836197894853e-14
lhumerus 69.22143069476456 31.025249550812838 65.52231414324203
lradius 86.30034863531446
lwrist 24.37607708809086
lhand -28.100483505383025 15.615041107376086
lfingers 7.125020000000001
lthumb -181.46899798764235 -22.1757047607188
rclavicle -4.816243584180469e-15 -1.0035836197894853e-14
rhumerus 126.71349205399497 28.559900191416833 -45.9768246462269
rradius 72.27720606154391
rwrist 16.231060129566202
rhand -36.344496644190066 18.888315223790222
rfingers 7.125020000000001
rthumb -9.448389479445424 -10.558814223344173
84
root -5.11247440244559 18.043734390775505 -3.832029399676376 -171.96695598919723 -9.762738456099818 -177.08703404025383
lfemur -26.742150114737438 -20.21396057423819 -12.256479084177895
ltibia 29.272508302800304
lfoot 24.41172227946469 -45.150501681502035
ltoes 47.39838186395468
rfemur 19.815301823690255 -11.13293330544371 23.500577011740397
rtibia 8.941811513642218
rfoot 36.79693750997891 -35.75732332974354
rtoes 27.665407153820446
lowerback -11.623844831472667 17.37980837013223 15.98201746143137
upperback -18.05540503210525 19.999466718313066 1.8259436728783924
thorax -8.915642260451804 7.466849026064377 -5.067994845365235
lowerneck -6.343355177963725 -22.96797504091635 -5.459823633658479
upperneck 11.055315216409902 -32.276600506773164 5.291569012656704
head 5.788345562418041 -15.837871673646402 -0.004138163516721027
lclavicle -4.920513672933311e-15 -1.0119607979835063e-14
lhumerus 71.25704966013193 32.80004589203476 64.54012465939438
lradius 88.10430090387018
lwrist 21.798644976936703
lhand -29.306771851862663 15.89368542608684
lfingers 7.125020000000001
lthumb -182.6312427299747 -22.993786618948704
rclavicle -4.920513672933311e-15 -1.0119607979835063e-14
rhumerus 128.1332289761342 27.386247817315844 -45.55829320096668
rradius 74.8887137098041
rwrist 16.584413075092456
rhand -39.576400336929225 20.236103171718106
rfingers 7.125020000000001
rthumb -12.566091752609811 -9.11042360825606
85
root -5.105905248235667 18.02274369945578 -3.913882499326754 -172.01284571149563 -10.491691279678605 -177.30642303149216
lfemur -27.035498205165887 -20.446082626002138 -12.150009907447238
ltibia 29.69559643922642
lfoot 24.81277565192603 -45.3357880367473
ltoes 47.48238749087933
rfemur 20.51136241834699 -11.257873068520356 23.61913011862456
rtibia 7.743245761730549
rfoot 38.10246244142898 -34.78543552571827
rtoes 27.250098020875242
lowerback -12.084041977571218 17.970790719781863 15.792519881303475
upperback -18.373645872970158 20.106138872791817 1.1492492066968945
thorax -8.730123621476075 7.286131498297065 -5.465200149841702
lowerneck -6.505619734720744 -22.848749583882107 -5.752921379369331
upperneck 11.349529336750171 -31.968271802365358 5.217236669578653
head 5.9608316508946455 -15.675648827382634 -0.025119974188617444
lclavicle -4.684221689412772e-15 -9.915464296735035e-15
lhumerus 73.1366574844186 34.03124502800128 63.772447502727395
lradius 89.13436936569306
lwrist 19.38805574914683
lhand -30.315854291223772 16.17867499704824
lfingers 7.125020000000001
lthumb -183.6034123294936 -24.295037530361455
rclavicle -4.684221689412771e-15 -9.915464296735035e-15
rhumerus 128.83465178790675 26.58434897204485 -45.55903897795662
rradius 77.05534315368591
rwrist 16.62645663921139
rhand -42.48628198157239 21.93740941482745
rfingers 7.125020000000001
rthumb -15.369370788132656 -7.262509201661175
86
root -5.106129881156743 18.001164629985915 -4.009955312410064 -172.6184311323825 -11.293707633014108 -178.09099918165262
lfemur -27.250892638051127 -20.567508696022106 -12.300025892336123
ltibia 30.00651272726521
lfoot 25.42540155919953 -45.60473795855709
ltoes 47.795958078076794
rfemur 21.047900351813034 -11.517617385270714 23.565362035100943
rtibia 6.777677163349388
rfoot 38.97158793854236 -34.17789640327573
rtoes 26.895334006438986
lowerback -12.597690819765448 18.20780507339417 15.642368494098514
upperback -18.635294453441396 20.250955760645144 0.5575052380593988
thorax -8.541576447300436 7.331015250566836 -5.84716274356101
lowerneck -6.681801925554467 -22.954039182172753 -6.049042341754082
upperneck 11.64826898444235 -32.02152951092879 5.084854385062466
head 6.093306757052433 -15.69343522245421 -0.08045406414686274
lclavicle -4.954378125329894e-15 -1.0151947639584176e-14
lhumerus 73.93538193025734 35.06608082959027 63.0273227832368
lradius 89.5153512480424
lwrist 17.153978268467
lhand -31.2762100773055 16.229593360222164
lfingers 7.125020000000001
lthumb -184.52829175661776 -24.260659696784714
rclavicle -4.954378125329894e-15 -1.0151947639584176e-14
rhumerus 128.7844869894263 26.213379704493555 -45.77389032799939
rradius 78.33640290212847
rwrist 16.24886828918578
rhand -44.934443803822326 23.62422104587999
rfingers 7.125020000000001
rthumb -17.725722981148774 -5.414247827589391
87
root -5.108531030299778 17.98330912671099 -4.077178778111287 -172.22955643574028 -11.808636759128788 -177.9418417735538
lfemur -27.36200008734849 -20.434191350448057 -12.404833970181418
ltibia 30.28051905427654
lfoot 26.338896208294287 -45.46458698807943
ltoes 48.59471691773739
rfemur 21.533720468300338 -11.796036420437968 23.569379398257926
rtibia 6.120634678841647
rfoot 39.72288502878073 -33.48293841079834
rtoes 26.762093345289227
lowerback -13.047576421623212 18.324541415130497 15.560946812587641
upperback -18.788005503396064 20.462977454694574 0.09710123063673759
thorax -8.31499610748428 7.491918254339506 -6.130724816958304
lowerneck -6.819598504119567 -22.878870179408803 -6.284639099317134
upperneck 12.043535117065115 -31.85340877543645 4.884884596691976
head 6.229239614410446 -15.624189458512303 -0.15797659947323606
lclavicle -4.764104342435867e-15 -9.997899808539723e-15
lhumerus 74.31372842631718 36.16998046640088 62.287729878764026
lradius 89.55768944033295
lwrist 15.140743234740375
lhand -31.861318967169034 16.332883158606435
lfingers 7.125020000000001
lthumb -185.09200652294987 -22.076617731014622
rclavicle -4.764104342435868e-15 -9.997899808539725e-15
rhumerus 128.5023130029342 26.26638338105036 -45.96269675408128
rradius 79.20764044780975
rwrist 15.601072849988405
rhand -46.989973947917456 25.306952497480616
rfingers 7.125020000000001
rthumb -19.703885190093775 -3.5946473315462963
